<?xml version="1.0" encoding="UTF-8" standalone="no"?>
<!DOCTYPE svg PUBLIC "-//W3C//DTD SVG 1.1//EN" "http://www.w3.org/Graphics/SVG/1.1/DTD/svg11.dtd">
<svg width="100%" height="100%" viewBox="0 0 1445 1445" version="1.1" xmlns="http://www.w3.org/2000/svg" xmlns:xlink="http://www.w3.org/1999/xlink" xml:space="preserve" xmlns:serif="http://www.serif.com/" style="fill-rule:evenodd;clip-rule:evenodd;stroke-linecap:round;stroke-linejoin:round;stroke-miterlimit:1.5;">
    <rect id="ArtBoard1" x="0" y="0" width="1444.51" height="1444.51" style="fill:none;"/>
    <g id="ArtBoard11" serif:id="ArtBoard1">
        <g transform="matrix(0.940434,0,0,0.940434,-6774.09,-1091.31)">
            <path d="M8739.16,1544.44C8739.16,1332.5 8567.09,1160.43 8355.16,1160.43L7587.16,1160.43C7375.22,1160.43 7203.15,1332.5 7203.15,1544.44L7203.15,2312.44C7203.15,2524.37 7375.22,2696.44 7587.16,2696.44L8355.16,2696.44C8567.09,2696.44 8739.16,2524.37 8739.16,2312.44L8739.16,1544.44Z" style="fill:rgb(235,235,235);"/>
            <clipPath id="_clip1">
                <path d="M8739.16,1544.44C8739.16,1332.5 8567.09,1160.43 8355.16,1160.43L7587.16,1160.43C7375.22,1160.43 7203.15,1332.5 7203.15,1544.44L7203.15,2312.44C7203.15,2524.37 7375.22,2696.44 7587.16,2696.44L8355.16,2696.44C8567.09,2696.44 8739.16,2524.37 8739.16,2312.44L8739.16,1544.44Z"/>
            </clipPath>
            <g clip-path="url(#_clip1)">
                <g transform="matrix(0.915162,0.245217,-0.246692,0.920667,1122.18,-2250.89)">
                    <path d="M8491.09,1363.76L8620.11,1660.59L8804.47,1598.56L8843.58,1791.21L9162.01,1755.91L8972.6,2017.44L9117.85,2148.06L8972.6,2278.68L9162.01,2540.21L8843.58,2504.91L8804.47,2697.57L8620.11,2635.53L8491.09,2932.37L8362.08,2635.53L8177.72,2697.57L8138.61,2504.91L7820.18,2540.21L8009.59,2278.68L7864.34,2148.06L8009.59,2017.44L7820.18,1755.91L8138.61,1791.21L8177.72,1598.56L8362.08,1660.59L8491.09,1363.76Z" style="fill:rgb(157,162,255);"/>
                </g>
                <g transform="matrix(0.896652,0.144177,0,0.940089,251.743,-1088.55)">
                    <g transform="matrix(1,0,0,1,-1237.74,24.4467)">
                        <rect x="8981.84" y="1493.01" width="844.404" height="683.266" style="fill:rgb(51,51,51);"/>
                    </g>
                    <g transform="matrix(0.732724,0,0,0.120318,1162.89,1337.82)">
                        <rect x="8981.84" y="1493.01" width="844.404" height="683.266" style="fill:rgb(64,64,64);"/>
                    </g>
                    <g transform="matrix(0.483527,0,0,0.0445981,3464.77,1612.65)">
                        <rect x="8981.84" y="1493.01" width="844.404" height="683.266" style="fill:rgb(166,166,166);"/>
                    </g>
                    <g transform="matrix(0.241764,0,0,0.0445981,5636.25,1723.08)">
                        <rect x="8981.84" y="1493.01" width="844.404" height="683.266" style="fill:rgb(166,166,166);"/>
                    </g>
                    <g transform="matrix(0.392552,0,0,0.0445981,4281.89,1836.87)">
                        <rect x="8981.84" y="1493.01" width="844.404" height="683.266" style="fill:rgb(166,166,166);"/>
                    </g>
                    <g transform="matrix(0.483527,0,0,0.0445981,3464.77,1959.03)">
                        <rect x="8981.84" y="1493.01" width="844.404" height="683.266" style="fill:rgb(166,166,166);"/>
                    </g>
                    <g transform="matrix(0.267276,0,0,1,5962.19,24.4467)">
                        <rect x="8981.84" y="1493.01" width="844.404" height="683.266" style="fill:rgb(77,77,77);"/>
                    </g>
                    <g transform="matrix(0.0785128,0,0,1,7817.02,24.4467)">
                        <rect x="8981.84" y="1493.01" width="844.404" height="683.266" style="fill:rgb(89,89,89);"/>
                    </g>
                </g>
            </g>
        </g>
        <g transform="matrix(0.884092,0.142157,0,0.884092,-6028.75,-2171.44)">
            <g transform="matrix(0.732724,0,0,1,1162.89,24.4467)">
                <rect x="8981.84" y="1493.01" width="844.404" height="683.266" style="fill:rgb(51,51,51);"/>
            </g>
            <g transform="matrix(0.732724,0,0,0.120318,1162.89,1337.82)">
                <rect x="8981.84" y="1493.01" width="844.404" height="683.266" style="fill:rgb(64,64,64);"/>
            </g>
            <g transform="matrix(0.483527,0,0,0.0445981,3464.77,1612.65)">
                <rect x="8981.84" y="1493.01" width="844.404" height="683.266" style="fill:rgb(166,166,166);"/>
            </g>
            <g transform="matrix(0.241764,0,0,0.0445981,5636.25,1723.08)">
                <rect x="8981.84" y="1493.01" width="844.404" height="683.266" style="fill:rgb(166,166,166);"/>
            </g>
            <g transform="matrix(0.392552,0,0,0.0445981,4281.89,1836.87)">
                <rect x="8981.84" y="1493.01" width="844.404" height="683.266" style="fill:rgb(166,166,166);"/>
            </g>
            <g transform="matrix(0.483527,0,0,0.0445981,3464.77,1959.03)">
                <rect x="8981.84" y="1493.01" width="844.404" height="683.266" style="fill:rgb(166,166,166);"/>
            </g>
        </g>
        <g transform="matrix(1.35602,0,0,1.31436,-10157.4,-1981.48)">
            <path d="M8221.48,2133.5C8282.77,2133.5 8332.52,2183.26 8332.52,2244.54C8332.52,2305.83 8281.15,2208.61 8219.86,2208.61C8158.58,2208.61 8110.44,2305.83 8110.44,2244.54C8110.44,2183.26 8160.19,2133.5 8221.48,2133.5Z" style="fill:rgb(157,162,255);"/>
        </g>
        <g transform="matrix(1.01024,0,0,1,-15.0768,0.132391)">
            <path d="M1104,974.345C1104,915.01 1056.32,866.839 997.587,866.839C938.854,866.839 891.17,915.01 891.17,974.345L891.17,1140.69C891.17,1200.03 938.854,1248.2 997.587,1248.2C1056.32,1248.2 1104,1200.03 1104,1140.69L1104,974.345Z" style="stroke:rgb(51,51,51);stroke-width:0.99px;"/>
        </g>
        <g transform="matrix(1.59967,0,0,1.33848,-600.09,-359.815)">
            <path d="M891.17,1091.54L891.17,1121.01C891.17,1191.21 938.854,1248.2 997.587,1248.2C1056.32,1248.2 1104,1191.21 1104,1121.01L1104,1091.54" style="fill:none;stroke:black;stroke-width:28.25px;"/>
        </g>
        <path d="M888.783,1397.51L1100.23,1397.51" style="fill:none;stroke:black;stroke-width:45.83px;"/>
        <path d="M994.848,1397.51L994.848,1312.87" style="fill:none;stroke:black;stroke-width:45.83px;"/>
    </g>
</svg>
